<svg width="100" height="100" viewBox="0 0 100 100" fill="none" xmlns="http://www.w3.org/2000/svg">
<circle cx="50" cy="50" r="50" fill="black"/>
<path d="M46.9371 12.7404C47.4658 12.3739 48.2792 11.9666 48.7266 11.8444C49.1739 11.7629 49.784 11.6407 50.0687 11.6C50.3127 11.6 51.1667 11.8036 51.8988 12.1295C52.5902 12.4146 53.6069 13.107 54.1357 13.6364C54.705 14.2474 55.1524 15.3063 55.2744 16.4467C55.4371 17.8315 55.2744 18.6053 54.6644 19.6236C54.1763 20.316 53.2002 21.212 52.5089 21.5785C51.5734 22.0266 50.5974 22.1895 49.3366 22.0266C47.9132 21.8636 47.2218 21.4971 46.205 20.3567C45.1476 19.2163 44.8629 18.5239 44.8629 17.2613C44.8629 16.3653 45.1069 15.1434 45.4323 14.4917C45.717 13.8808 46.4084 13.107 46.9371 12.7404Z" fill="white"/>
<path d="M29.0829 17.1798C29.815 16.6911 31.1571 16.0394 32.0519 15.7543C32.9466 15.4692 34.4921 15.347 35.5088 15.4692C36.5256 15.5914 38.1117 16.1209 39.0878 16.6911C40.0232 17.2206 41.2433 18.2795 41.772 19.0126C42.3007 19.705 42.9107 20.9676 43.1954 21.7415C43.4395 22.5153 43.6428 23.8186 43.6428 24.5925C43.6428 25.3663 43.1954 26.9547 42.7074 28.0544C42.1787 29.1948 41.2026 30.5389 40.5519 31.0276C39.9012 31.5571 38.7217 32.2495 37.949 32.5753C37.1763 32.9011 35.6308 33.1455 34.4921 33.1455C33.394 33.1455 31.7265 32.7789 30.8318 32.3717C29.937 31.9644 28.7169 31.1905 28.1475 30.661C27.5781 30.1316 26.7647 29.0319 26.3581 28.2581C25.8293 27.3213 25.5853 25.9772 25.5447 24.3888C25.5447 22.4338 25.7887 21.5378 26.6834 20.0309C27.2935 18.9312 28.3916 17.6686 29.0829 17.1798Z" fill="white"/>
<path d="M58.5687 18.361C59.4228 17.5464 60.9276 16.5689 61.9443 16.2431C62.9611 15.9173 64.5878 15.7136 65.6046 15.7951C66.6213 15.8765 68.1668 16.3245 69.0615 16.7726C69.9563 17.2206 71.0951 18.0351 71.5424 18.5646C72.0305 19.0534 72.7625 20.153 73.1692 20.9269C73.6166 21.7822 73.9013 23.2077 73.9013 24.5925C73.9013 26.0587 73.6166 27.4028 73.0472 28.4617C72.5998 29.3577 71.5018 30.661 70.6477 31.3942C69.7936 32.1273 68.2481 32.9419 67.2314 33.1862C66.174 33.4713 64.6285 33.5528 63.5711 33.3899C62.5543 33.227 60.9682 32.6568 60.0328 32.1273C58.9347 31.4756 57.8773 30.4167 57.1859 29.1948C56.5352 28.0137 56.0065 26.4253 55.9251 25.2034C55.8438 23.9408 56.0065 22.556 56.4132 21.5378C56.7385 20.6418 57.7146 19.2163 58.5687 18.361Z" fill="white"/>
<path d="M15.7838 29.8465C16.3532 29.1541 17.2073 28.421 17.736 28.2581C18.224 28.0544 19.2815 27.8915 20.0542 27.8915C20.8269 27.8508 22.0877 28.2173 22.8198 28.6653C23.5111 29.1134 24.4059 30.0908 24.7719 30.824C25.2193 31.72 25.382 32.6568 25.1786 33.7564C25.0566 34.6525 24.5279 35.8336 24.0399 36.3631C23.5112 36.8925 22.4537 37.5849 21.681 37.9108C20.7863 38.2773 19.8102 38.3995 19.0374 38.1959C18.3867 38.0329 17.37 37.6257 16.8413 37.2591C16.3126 36.8925 15.6212 36.1187 15.3365 35.5078C15.0111 34.8561 14.7671 33.6342 14.7671 32.7382C14.7671 31.5978 15.0925 30.7425 15.7838 29.8465Z" fill="white"/>
<path d="M75.5687 29.8465C76.1381 29.1541 76.9922 28.421 77.5209 28.2581C78.0089 28.0544 79.0257 27.8915 79.7578 27.8915C80.4492 27.8508 81.5879 28.1359 82.2793 28.4617C82.9707 28.7875 83.8654 29.6836 84.3128 30.4167C84.7602 31.1091 85.1262 32.2087 85.1262 32.8604C85.1262 33.4713 84.8008 34.6525 84.4348 35.467C83.9061 36.526 83.2147 37.1776 81.9946 37.7071C80.8152 38.1959 79.7984 38.3588 78.9444 38.1959C78.2123 38.0329 77.1549 37.6257 76.6262 37.2591C76.0975 36.8925 75.4061 36.1187 75.1214 35.5078C74.796 34.8561 74.552 33.6342 74.552 32.7382C74.552 31.5978 74.8774 30.7425 75.5687 29.8465Z" fill="white"/>
<path d="M44.4155 31.5164C44.8222 30.7425 45.8797 29.6836 46.7337 29.1541C47.9945 28.421 48.7266 28.2581 50.3533 28.421C51.4921 28.5024 52.8342 28.9504 53.3629 29.3577C53.8916 29.765 54.6644 30.5389 55.1117 31.1091C55.5591 31.6793 55.9658 32.9419 56.0878 33.9601C56.2505 35.3041 56.0878 36.2002 55.5184 37.2184C55.1117 37.9922 54.1357 39.0512 53.3629 39.5806C52.3869 40.2323 51.4108 40.4767 49.9467 40.4767C48.6452 40.4767 47.4251 40.1916 46.6117 39.6621C45.8797 39.2141 44.9036 38.2366 44.4562 37.5442C44.0088 36.7704 43.6428 35.467 43.6428 34.571C43.6428 33.675 43.9682 32.2902 44.4155 31.5164Z" fill="white"/>
<path d="M30.7504 38.8883C31.2384 38.1144 32.3772 37.1369 33.272 36.7296C34.1667 36.3223 35.3461 35.9965 35.9155 35.9965C36.4849 35.9965 37.7457 36.4038 38.7624 36.8925C40.1859 37.6257 40.7959 38.2773 41.5686 39.8657C42.26 41.2912 42.4634 42.2687 42.26 43.124C42.138 43.8164 41.65 44.9568 41.2026 45.6899C40.7146 46.5045 39.6571 47.3191 38.4777 47.8486C36.9729 48.5002 36.1595 48.6224 34.8988 48.4188C33.8007 48.2151 32.7432 47.6042 31.5638 46.4231C29.9777 44.8754 29.8557 44.5903 29.8557 42.5131C29.8557 40.884 30.0997 39.9065 30.7504 38.8883Z" fill="white"/>
<path d="M58.8127 38.8068C59.3414 38.0737 60.3988 37.2591 61.1716 36.974C61.9443 36.6889 63.1237 36.4445 63.7744 36.4445C64.4658 36.4038 65.808 36.8111 66.784 37.3406C67.7601 37.8293 68.8989 38.7661 69.3056 39.4585C69.7529 40.2323 70.0376 41.4542 70.0376 42.7168C70.0376 44.1423 69.7936 45.2012 69.1429 46.138C68.6549 46.9118 67.5161 47.8893 66.6213 48.2966C65.7266 48.7039 64.5472 49.0297 63.9778 49.0297C63.4084 49.0297 62.229 48.7039 61.3343 48.2966C60.4395 47.8893 59.3007 47.034 58.8127 46.3416C58.3653 45.6899 57.8366 44.631 57.674 43.9386C57.5113 43.2462 57.4706 42.1058 57.6333 41.4134C57.7553 40.6803 58.3247 39.4992 58.8127 38.8068Z" fill="white"/>
<path d="M75.2841 43.124C76.0975 42.5538 77.4396 41.9022 78.2123 41.6985C78.985 41.4949 80.4085 41.4134 81.3846 41.5356C82.32 41.6171 83.7841 42.0651 84.6382 42.4724C85.4516 42.9204 86.631 43.7757 87.2411 44.4274C87.8511 45.0383 88.6238 46.2602 88.9492 47.1155C89.3152 47.93 89.5999 49.3148 89.5999 50.1701C89.5999 50.9847 89.3966 52.3287 89.1525 53.1026C88.8678 53.8764 88.1765 55.139 87.6071 55.9129C87.0377 56.6867 85.6549 57.7456 84.5162 58.2751C83.2961 58.8046 81.7099 59.2119 80.5712 59.2119C79.4731 59.2119 77.9276 58.9268 77.1142 58.601C76.2601 58.2344 74.8774 57.2569 74.0233 56.4423C73.0472 55.4648 72.2745 54.2022 71.8678 52.8989C71.5017 51.6363 71.3797 50.2516 71.5424 49.2333C71.6644 48.3373 72.2338 46.8303 72.7625 45.8936C73.2912 44.9161 74.43 43.6942 75.2841 43.124Z" fill="white"/>
<path d="M12.6523 44.8754C13.4657 43.9793 14.8891 42.8797 15.7838 42.4724C16.6786 42.0651 18.3461 41.6985 19.5662 41.6985C20.9489 41.6985 22.3317 42.0244 23.5925 42.6353C24.6092 43.124 25.9513 44.1015 26.5207 44.7939C27.0901 45.527 27.8222 46.7896 28.0662 47.6449C28.3509 48.541 28.5949 49.7628 28.5949 50.4552C28.5949 51.1476 28.3509 52.3695 28.0662 53.2655C27.8222 54.1208 27.0901 55.3834 26.5207 56.1165C25.9513 56.8089 24.6906 57.7864 23.6738 58.3158C22.4131 58.9675 21.193 59.2526 19.4441 59.2526C17.6547 59.2526 16.5159 58.9675 15.1738 58.3158C13.9944 57.6642 12.8556 56.646 12.0015 55.3427C11.2695 54.2023 10.5781 52.5731 10.4561 51.6771C10.3341 50.781 10.4154 49.2741 10.6594 48.3373C10.9034 47.3598 11.7982 45.8529 12.6523 44.8754Z" fill="white"/>
<path d="M45.9203 46.4638C46.3677 46.0972 47.3031 45.6085 48.0758 45.4456C48.8486 45.2419 50.1093 45.2419 50.9227 45.4456C51.7361 45.6085 52.7122 46.0972 53.1596 46.4638C53.5663 46.8711 54.1763 47.8486 54.5017 48.6224C54.8677 49.5184 54.9897 50.4959 54.7864 51.2698C54.6237 51.9622 54.217 52.9397 53.851 53.4691C53.4849 53.9986 52.7122 54.691 52.1022 54.9761C51.4514 55.3019 50.3127 55.5463 49.54 55.5463C48.7672 55.5463 47.6285 55.3019 47.0184 54.9761C46.3677 54.691 45.595 53.9986 45.2289 53.4691C44.8629 52.9397 44.4562 51.9622 44.2935 51.2698C44.0902 50.4959 44.2122 49.5184 44.5782 48.6224C44.9036 47.8486 45.5136 46.8711 45.9203 46.4638Z" fill="white"/>
<path d="M31.5231 54.0393C32.0112 53.5099 33.0279 52.9397 33.6787 52.6953C34.37 52.4916 35.6308 52.4102 36.5256 52.4916C37.4203 52.5731 38.5997 53.0211 39.1691 53.4284C39.7385 53.8357 40.5926 54.8132 41.1213 55.587C41.6906 56.4423 42.016 57.5827 42.016 58.5195C42.016 59.3341 41.772 60.5152 41.4466 61.1669C41.1619 61.7778 40.3892 62.7553 39.7385 63.3255C39.0471 63.8957 37.7863 64.5066 36.7289 64.6695C35.2241 64.9139 34.5734 64.7917 33.1093 64.0179C32.0925 63.4884 30.9538 62.6331 30.5064 62.0629C30.0997 61.4927 29.6523 60.2301 29.5303 59.2119C29.3676 57.99 29.4896 56.9718 29.937 56.1572C30.2624 55.4648 30.9944 54.5281 31.5231 54.0393Z" fill="white"/>
<path d="M59.9108 54.0801C60.4802 53.6728 61.3749 53.2248 61.9443 53.0618C62.5137 52.8989 63.3271 52.736 63.7744 52.736C64.2218 52.6953 65.4012 53.1026 66.418 53.5913C67.8414 54.3244 68.4515 54.9761 69.2242 56.5645C69.9156 57.99 70.119 58.9675 69.9156 59.8228C69.7936 60.5152 69.3056 61.6556 68.8582 62.3887C68.3702 63.1626 67.3127 64.0179 66.1333 64.5473C64.7505 65.1583 63.7744 65.3619 62.7577 65.1583C61.985 65.0361 60.7242 64.5066 60.0328 63.9771C59.3008 63.4884 58.406 62.4702 58.0807 61.7778C57.7553 61.0447 57.4706 59.6599 57.4706 58.7231C57.4706 57.7456 57.796 56.4831 58.2027 55.8721C58.5687 55.2612 59.3414 54.4466 59.9108 54.0801Z" fill="white"/>
<path d="M45.4729 62.0629C45.9203 61.7371 46.8964 61.2483 47.7098 60.9632C48.4825 60.6781 49.7026 60.5559 50.3533 60.7188C51.0447 60.841 51.9395 61.0854 52.3868 61.2483C52.8342 61.452 53.7696 62.1444 54.4204 62.8775C55.4371 63.9364 55.6811 64.5473 55.7625 66.4616C55.8438 68.2537 55.6811 69.0682 55.0711 70.1272C54.583 70.8196 53.4443 71.7971 52.5089 72.2451C51.5328 72.6931 50.272 73.0597 49.662 73.0597C49.0112 73.0597 47.7911 72.6931 46.8964 72.2451C46.0017 71.7971 44.9036 70.8196 44.4562 70.1272C44.0088 69.3941 43.5208 68.2537 43.3988 67.5613C43.2361 66.7874 43.4394 65.6877 43.9275 64.5066C44.3749 63.4884 45.0662 62.3887 45.4729 62.0629Z" fill="white"/>
<path d="M74.3486 64.5066C74.674 63.8142 75.5687 62.9182 76.3008 62.4295C77.3176 61.8185 78.0496 61.6556 79.6357 61.7778C81.3439 61.9407 81.8726 62.2258 83.0114 63.4477C84.0281 64.5881 84.3128 65.2805 84.3128 66.543C84.3128 67.4391 84.0281 68.7017 83.7028 69.3941C83.3367 70.1272 82.4013 70.9417 81.3846 71.4305C80.4085 71.8785 79.3511 72.2451 79.0257 72.2451C78.7003 72.2451 77.6836 71.8785 76.7888 71.4712C75.7314 70.9418 74.918 70.1679 74.4707 69.2312C74.064 68.4166 73.7386 67.3169 73.7386 66.7467C73.7386 66.1765 74.0233 65.199 74.3486 64.5066Z" fill="white"/>
<path d="M15.1331 64.751C15.5805 64.1401 16.5566 63.3255 17.2886 63.0404C18.0207 62.7146 19.2815 62.5516 20.0542 62.6738C20.8269 62.7553 21.925 63.2033 22.4944 63.6106C23.0638 64.0179 23.8772 65.0768 24.2839 65.9729C24.9346 67.2762 24.9753 67.8056 24.6092 68.9868C24.3652 69.7606 23.6332 70.901 23.0231 71.5527C22.3317 72.2451 21.2336 72.7746 20.2575 72.9375C19.0781 73.1004 18.1834 72.9375 17.0446 72.408C15.8245 71.8378 15.2551 71.1861 14.6858 69.9235C14.2791 68.946 14.035 67.6835 14.157 67.0725C14.2384 66.4209 14.6858 65.4027 15.1331 64.751Z" fill="white"/>
<path d="M28.9203 69.4348C29.6117 68.8239 30.8318 68.1722 31.5638 67.8871C32.2552 67.6427 33.7193 67.3984 34.8174 67.3984C35.8748 67.3576 37.3389 67.602 38.071 67.8871C38.7624 68.2129 39.9825 68.9868 40.7552 69.6384C41.4873 70.2901 42.4634 71.512 42.8701 72.3673C43.3581 73.304 43.6428 74.7295 43.6428 76.2365C43.6428 77.8249 43.3581 79.1282 42.7074 80.3908C42.2193 81.3683 41.0806 82.7124 40.1859 83.3233C39.2911 83.975 37.6643 84.6673 36.5256 84.9117C35.0614 85.2375 34.004 85.2375 32.6619 84.9117C31.6045 84.6673 30.059 83.812 29.0423 82.916C28.0255 82.1014 26.8868 80.6759 26.4801 79.7799C26.114 78.8839 25.748 77.2547 25.748 76.1143C25.748 74.811 26.0734 73.4262 26.6834 72.2858C27.1714 71.2676 28.1882 70.005 28.9203 69.4348Z" fill="white"/>
<path d="M58.6094 69.4348C59.3007 68.8239 60.5208 68.1722 61.2529 67.8871C61.9443 67.6427 63.2864 67.3984 64.1811 67.3984C65.0759 67.3576 66.4587 67.5205 67.2314 67.7649C68.0041 67.9686 69.3869 68.7424 70.241 69.4755C71.0951 70.2086 72.1525 71.512 72.5592 72.3673C73.0879 73.3447 73.3319 74.7295 73.3319 76.4401C73.3319 78.2322 73.0472 79.4948 72.3965 80.7574C71.9085 81.7756 70.851 82.9975 70.0783 83.4862C69.3056 84.0157 67.7601 84.6266 66.6213 84.9117C65.0759 85.2783 64.0998 85.2783 62.5543 84.9524C61.2529 84.6266 59.8701 83.9342 58.7314 82.9567C57.7146 82.1014 56.5759 80.6759 56.1692 79.7799C55.8031 78.8839 55.4371 77.2547 55.4371 76.1143C55.4371 74.811 55.7625 73.4262 56.3725 72.2858C56.8605 71.2676 57.8773 70.005 58.6094 69.4348Z" fill="white"/>
<path d="M45.1883 81.5312C45.717 80.3501 46.3677 79.5355 47.3438 79.0875C48.1165 78.6802 49.2146 78.3544 49.8653 78.3544C50.4754 78.3544 51.6548 78.6802 52.4682 79.0875C53.5663 79.5762 54.1763 80.2686 54.7457 81.6127C55.3964 83.1604 55.4778 83.6898 55.0711 84.9932C54.827 85.8077 54.1357 86.9074 53.5256 87.4369C52.8749 87.9664 51.8581 88.5366 51.1668 88.6995C50.4754 88.8624 49.3366 88.8217 48.5232 88.618C47.7505 88.3736 46.6117 87.6813 46.0423 87.0296C45.473 86.4187 44.9036 85.2783 44.7409 84.5859C44.5375 83.6491 44.7002 82.6716 45.1883 81.5312Z" fill="white"/>
</svg>
